<svg version="1.1" id="Layer_1" xmlns="http://www.w3.org/2000/svg" xmlns:xlink="http://www.w3.org/1999/xlink" x="0px" y="0px"
	 width="100%" viewBox="0 0 1570 1009" enable-background="new 0 0 1570 1009" xml:space="preserve">
<path fill="#000000" opacity="1.000000" stroke="none" 
	d="
M1031.000000,1010.000000 
	C687.333313,1010.000000 344.166656,1010.000000 1.000000,1010.000000 
	C1.000000,673.666687 1.000000,337.333344 1.000000,1.000000 
	C524.333313,1.000000 1047.666626,1.000000 1571.000000,1.000000 
	C1571.000000,337.333344 1571.000000,673.666687 1571.000000,1010.000000 
	C1391.166626,1010.000000 1211.333374,1010.000000 1031.000000,1010.000000 
M222.776291,411.265839 
	C211.680725,391.599579 208.672867,370.432617 212.158340,348.433777 
	C214.890869,331.187164 221.387283,315.078735 230.467896,300.196259 
	C245.751877,275.146942 266.104919,254.570236 289.052582,236.603256 
	C313.585449,217.395157 340.257965,201.409180 368.126404,187.592606 
	C385.081848,179.186493 402.598297,171.871445 420.059662,164.534912 
	C455.897552,149.477356 492.927032,137.792191 530.531677,128.236847 
	C559.750000,120.812485 589.336426,114.674347 618.974426,109.111237 
	C646.441650,103.955582 674.151184,100.013725 701.837402,96.131844 
	C718.257874,93.829544 734.825134,92.514160 751.353149,91.058731 
	C765.473816,89.815285 779.622131,88.810844 793.777100,88.053680 
	C810.304260,87.169609 826.849731,86.190529 843.391174,86.114838 
	C867.489685,86.004578 891.595337,86.505630 915.691162,87.047699 
	C933.568909,87.449890 951.436890,88.304970 969.307068,89.013916 
	C975.579895,89.262764 981.868530,89.448509 988.111023,90.060982 
	C1003.634705,91.584091 1019.138489,93.311928 1034.645264,95.004028 
	C1046.718018,96.321404 1058.834351,97.364502 1070.838745,99.151299 
	C1086.183838,101.435356 1101.477051,104.129677 1116.717773,107.038681 
	C1135.463379,110.616653 1154.168579,114.428085 1172.819214,118.471252 
	C1183.518555,120.790680 1194.075073,123.769424 1205.913086,126.758751 
	C1204.578369,125.612671 1204.297241,125.184990 1203.923584,125.077126 
	C1185.305664,119.701546 1166.824951,113.761551 1148.019287,109.146408 
	C1122.375610,102.853119 1096.540771,97.294479 1070.679077,91.947418 
	C1051.019775,87.882744 1031.258179,84.198860 1011.417725,81.155838 
	C992.305054,78.224419 973.040710,76.265739 953.828247,74.005379 
	C938.830811,72.240921 923.831543,70.438805 908.794739,69.077721 
	C894.347046,67.769951 879.861389,66.774712 865.371765,66.063911 
	C846.845093,65.155083 828.294250,64.032661 809.760071,64.136398 
	C774.054688,64.336250 738.347961,65.123131 702.653381,66.093620 
	C686.663025,66.528389 670.682373,67.766655 654.730469,69.051208 
	C637.366760,70.449432 620.021667,72.143593 602.705261,74.044342 
	C586.577148,75.814674 570.411621,77.509163 554.416931,80.166519 
	C531.394714,83.991425 508.496521,88.575523 485.574036,92.984367 
	C451.285614,99.579292 417.602478,108.582870 384.273712,118.926414 
	C348.087402,130.156784 312.623932,143.269653 278.227997,159.261536 
	C253.113312,170.938232 228.467651,183.505829 205.532257,199.013474 
	C188.610641,210.454926 171.799744,222.302246 156.344025,235.601028 
	C141.121918,248.698822 126.731499,263.052216 113.696022,278.322815 
	C100.018814,294.345245 89.199486,312.526459 80.843445,332.130646 
	C71.731522,353.508240 67.140259,375.778656 66.167183,398.792297 
	C65.801025,407.452057 67.168404,416.206787 68.015686,424.891876 
	C70.006859,445.302460 76.765907,464.343536 85.421410,482.733826 
	C89.315979,491.008575 94.012512,498.905914 97.655640,507.150879 
	C90.910576,514.457947 84.023964,521.640320 77.449783,529.098022 
	C63.607048,544.801086 51.660362,561.880798 41.923546,580.406372 
	C29.419432,604.196960 20.971136,629.161072 18.717150,656.271179 
	C17.280975,673.544922 18.591539,690.381042 22.623541,706.997131 
	C30.347662,738.828674 47.163181,765.767700 69.192833,789.554810 
	C84.225372,805.786621 101.307594,819.721252 119.532326,832.262207 
	C145.290436,849.987122 172.842850,864.400330 201.490158,876.794250 
	C236.174622,891.799988 271.959076,903.580933 308.520660,913.040771 
	C343.244659,922.025208 378.311005,929.347412 413.876190,934.114502 
	C436.787323,937.185486 459.692627,940.361511 482.668518,942.867126 
	C499.932098,944.749756 517.289917,945.873901 534.631348,946.906250 
	C551.190918,947.891968 567.787598,948.968933 584.360718,948.863647 
	C619.939575,948.637695 655.519592,947.888245 691.087463,946.923096 
	C707.970459,946.464966 724.838562,945.186829 741.691406,943.973633 
	C756.864075,942.881409 772.026855,941.566345 787.157471,939.997192 
	C808.193542,937.815735 829.268921,935.815674 850.193787,932.807861 
	C876.824219,928.979736 903.527344,925.198608 929.829041,919.644775 
	C973.443726,910.435120 1016.766541,899.841919 1060.198853,889.773438 
	C1062.884033,889.151001 1065.452148,888.023499 1068.831543,886.873291 
	C1067.550659,886.421082 1067.214111,886.166504 1066.958740,886.231323 
	C1024.830811,896.937439 982.262146,905.419006 939.164001,911.087097 
	C912.313538,914.618286 885.437683,918.023071 858.507019,920.854675 
	C840.079163,922.792297 821.551697,923.915222 803.042236,924.906921 
	C784.149292,925.919189 765.226074,926.795959 746.312134,926.883789 
	C720.360474,927.004395 694.404236,926.380371 668.451904,925.955261 
	C660.992004,925.833008 653.522461,925.502625 646.085876,924.909607 
	C626.961426,923.384583 607.845642,921.738647 588.740662,919.986206 
	C575.241699,918.748047 561.691162,917.760315 548.296387,915.768311 
	C524.302429,912.199890 500.207855,908.887756 476.522278,903.770264 
	C445.065491,896.973633 413.658356,889.583740 382.779175,880.567505 
	C342.503479,868.807556 303.635712,853.151062 266.925110,832.500732 
	C245.357452,820.368469 224.919464,806.621765 206.618652,789.965332 
	C193.219543,777.770142 181.375778,764.160339 171.916840,748.524292 
	C162.159515,732.394775 155.666946,715.156433 154.118011,696.412781 
	C152.141998,672.500977 156.997467,649.702698 169.215347,629.043213 
	C175.134689,619.033997 183.064667,610.213806 190.779907,600.993164 
	C214.312836,618.150757 238.912689,633.653625 264.698578,647.147888 
	C282.100403,656.254578 299.743011,665.014343 317.773926,672.777344 
	C340.378265,682.509216 363.198822,691.909790 386.458130,699.905701 
	C414.641663,709.594360 443.239136,718.169189 471.928284,726.266357 
	C492.304077,732.017212 513.055908,736.517090 533.773193,740.953064 
	C553.081665,745.087402 572.543274,748.526550 591.980774,752.031677 
	C605.972168,754.554749 620.000000,756.929810 634.076050,758.913269 
	C646.260925,760.630310 658.536377,761.703674 670.771912,763.060608 
	C685.616333,764.706909 700.442322,766.550720 715.310791,767.939636 
	C728.927917,769.211670 742.580688,770.175720 756.236511,770.940247 
	C771.931274,771.818970 787.648682,772.935181 803.352722,772.882385 
	C845.061157,772.742126 886.802429,774.357910 928.468445,771.027710 
	C938.993958,770.186462 949.556335,769.808960 960.083130,768.981384 
	C975.502258,767.769165 990.917786,766.478149 1006.310364,764.970581 
	C1021.665649,763.466614 1037.056396,762.102295 1052.312622,759.864685 
	C1071.705322,757.020264 1091.038574,753.671814 1110.287354,749.968689 
	C1133.511475,745.500916 1156.811890,741.194153 1179.728394,735.424500 
	C1205.778809,728.865723 1231.760620,721.707703 1257.185669,713.081604 
	C1284.176270,703.924438 1310.630127,693.110718 1337.041260,682.340942 
	C1366.953857,670.143311 1395.236816,654.612854 1422.278564,637.026917 
	C1450.294678,618.807434 1477.025635,598.809753 1499.060791,573.338013 
	C1507.859863,563.166687 1516.404053,552.725708 1524.359253,541.889832 
	C1529.911255,534.327209 1534.264282,525.884460 1539.537476,517.201721 
	C1537.408447,517.087952 1536.599365,517.006836 1535.790283,517.006775 
	C1453.463257,517.000671 1371.136108,516.993591 1288.809082,517.048828 
	C1287.071045,517.049988 1285.191895,517.471497 1283.616577,518.207031 
	C1252.490356,532.738403 1221.809692,548.322388 1190.164307,561.611084 
	C1167.094971,571.298462 1143.034180,578.947021 1118.911377,585.705872 
	C1098.227783,591.501099 1076.901245,595.139343 1055.724731,598.994324 
	C1038.029053,602.215698 1020.172302,604.629150 1002.324402,606.912537 
	C988.635864,608.663879 974.864258,609.832397 961.103638,610.936646 
	C945.977539,612.150330 930.828613,613.118408 915.676819,613.963196 
	C900.812683,614.791931 885.935913,615.428772 871.058167,615.967896 
	C857.960449,616.442566 844.847473,617.092712 831.752136,616.905640 
	C808.874756,616.578857 786.005005,615.693359 763.133606,614.990356 
	C754.861511,614.736145 746.591248,614.387207 738.325378,613.977478 
	C733.717041,613.749084 729.104431,613.441711 724.519531,612.935730 
	C710.168884,611.352234 695.824097,609.711182 681.489258,607.990295 
	C667.980225,606.368469 654.400024,605.119568 641.005676,602.810181 
	C618.493591,598.928650 595.957642,594.976807 573.698120,589.888977 
	C542.729126,582.810425 511.758087,575.514221 481.254150,566.697876 
	C455.927429,559.377808 431.142273,550.086060 406.371185,540.977051 
	C390.923676,535.296692 375.787048,528.684387 360.816620,521.823242 
	C350.611847,517.146362 340.935516,511.316498 331.688782,505.730682 
	C339.565735,502.274384 347.374908,498.652863 355.330750,495.388855 
	C403.738068,475.529266 453.171143,458.659210 503.857880,445.659058 
	C531.366455,438.603668 558.999634,431.948822 586.773987,426.041046 
	C610.656128,420.961273 634.770508,416.906860 658.871460,412.942200 
	C679.391357,409.566620 700.005676,406.704041 720.639771,404.103302 
	C737.032471,402.037140 753.491943,400.347290 769.969666,399.148804 
	C789.474854,397.730072 809.023560,396.410431 828.567810,396.154602 
	C852.679565,395.838959 876.809937,396.504120 900.925293,397.050598 
	C917.176575,397.418823 933.427795,398.105927 949.657471,399.028717 
	C969.160706,400.137604 988.653564,401.491577 1008.127197,403.037811 
	C1021.968140,404.136780 1035.833740,405.277008 1049.573242,407.214355 
	C1067.381104,409.725372 1085.142456,412.695404 1102.803223,416.094086 
	C1138.190308,422.904114 1172.632324,433.186737 1204.724487,449.631134 
	C1231.370117,463.284760 1256.974854,478.964752 1283.139771,493.569733 
	C1285.727173,495.013977 1289.005005,495.897156 1291.963989,495.901611 
	C1373.453613,496.024963 1454.943481,496.000397 1536.433228,496.000427 
	C1538.394287,496.000427 1540.355469,496.000458 1542.706787,496.000458 
	C1539.390991,471.654236 1530.491211,450.195312 1517.730347,430.146545 
	C1503.956055,408.505676 1486.343994,390.451233 1466.737183,374.089600 
	C1445.652344,356.494476 1422.662476,341.854431 1398.391724,329.211334 
	C1361.427124,309.955688 1322.870728,294.448364 1282.668213,283.535400 
	C1251.929199,275.191315 1220.850830,268.025696 1189.750854,261.111572 
	C1172.533691,257.283844 1154.997925,254.811920 1137.538574,252.174088 
	C1123.823486,250.101990 1110.025635,248.517990 1096.227051,247.077362 
	C1083.723633,245.771957 1071.177246,244.841736 1058.635620,243.946091 
	C1038.983521,242.542618 1019.326538,241.183014 999.657471,240.051224 
	C989.051636,239.440933 978.415100,239.037369 967.794678,239.081131 
	C949.338623,239.157150 930.881104,239.529251 912.430115,240.004288 
	C891.682556,240.538467 870.937500,241.223511 850.199097,242.038742 
	C838.112305,242.513901 826.017029,243.096756 813.967896,244.126801 
	C797.997070,245.492096 782.061584,247.286438 766.121948,248.998932 
	C750.842712,250.640472 735.520447,252.018585 720.319702,254.221161 
	C697.945374,257.463257 675.563782,260.818878 653.363220,265.058044 
	C619.801025,271.466705 586.222534,277.956238 552.969666,285.767944 
	C524.521240,292.450989 496.459930,300.827423 468.337006,308.839600 
	C430.123627,319.726532 392.739807,333.089600 355.968079,348.099030 
	C336.055573,356.226868 316.295715,364.777344 296.780762,373.814789 
	C281.439575,380.919312 266.546478,388.998779 251.517258,396.766968 
	C241.989044,401.691864 232.576218,406.839996 222.776291,411.265839 
z"/>
<path fill="#EC1F26" opacity="1.000000" stroke="none" 
	d="
M98.345177,506.974487 
	C94.012512,498.905914 89.315979,491.008575 85.421410,482.733826 
	C76.765907,464.343536 70.006859,445.302460 68.015686,424.891876 
	C67.168404,416.206787 65.801025,407.452057 66.167183,398.792297 
	C67.140259,375.778656 71.731522,353.508240 80.843445,332.130646 
	C89.199486,312.526459 100.018814,294.345245 113.696022,278.322815 
	C126.731499,263.052216 141.121918,248.698822 156.344025,235.601028 
	C171.799744,222.302246 188.610641,210.454926 205.532257,199.013474 
	C228.467651,183.505829 253.113312,170.938232 278.227997,159.261536 
	C312.623932,143.269653 348.087402,130.156784 384.273712,118.926414 
	C417.602478,108.582870 451.285614,99.579292 485.574036,92.984367 
	C508.496521,88.575523 531.394714,83.991425 554.416931,80.166519 
	C570.411621,77.509163 586.577148,75.814674 602.705261,74.044342 
	C620.021667,72.143593 637.366760,70.449432 654.730469,69.051208 
	C670.682373,67.766655 686.663025,66.528389 702.653381,66.093620 
	C738.347961,65.123131 774.054688,64.336250 809.760071,64.136398 
	C828.294250,64.032661 846.845093,65.155083 865.371765,66.063911 
	C879.861389,66.774712 894.347046,67.769951 908.794739,69.077721 
	C923.831543,70.438805 938.830811,72.240921 953.828247,74.005379 
	C973.040710,76.265739 992.305054,78.224419 1011.417725,81.155838 
	C1031.258179,84.198860 1051.019775,87.882744 1070.679077,91.947418 
	C1096.540771,97.294479 1122.375610,102.853119 1148.019287,109.146408 
	C1166.824951,113.761551 1185.305664,119.701546 1203.923584,125.077126 
	C1204.297241,125.184990 1204.578369,125.612671 1205.913086,126.758751 
	C1194.075073,123.769424 1183.518555,120.790680 1172.819214,118.471252 
	C1154.168579,114.428085 1135.463379,110.616653 1116.717773,107.038681 
	C1101.477051,104.129677 1086.183838,101.435356 1070.838745,99.151299 
	C1058.834351,97.364502 1046.718018,96.321404 1034.645264,95.004028 
	C1019.138489,93.311928 1003.634705,91.584091 988.111023,90.060982 
	C981.868530,89.448509 975.579895,89.262764 969.307068,89.013916 
	C951.436890,88.304970 933.568909,87.449890 915.691162,87.047699 
	C891.595337,86.505630 867.489685,86.004578 843.391174,86.114838 
	C826.849731,86.190529 810.304260,87.169609 793.777100,88.053680 
	C779.622131,88.810844 765.473816,89.815285 751.353149,91.058731 
	C734.825134,92.514160 718.257874,93.829544 701.837402,96.131844 
	C674.151184,100.013725 646.441650,103.955582 618.974426,109.111237 
	C589.336426,114.674347 559.750000,120.812485 530.531677,128.236847 
	C492.927032,137.792191 455.897552,149.477356 420.059662,164.534912 
	C402.598297,171.871445 385.081848,179.186493 368.126404,187.592606 
	C340.257965,201.409180 313.585449,217.395157 289.052582,236.603256 
	C266.104919,254.570236 245.751877,275.146942 230.467896,300.196259 
	C221.387283,315.078735 214.890869,331.187164 212.158340,348.433777 
	C208.672867,370.432617 211.680725,391.599579 222.967224,411.940918 
	C230.102798,428.227539 241.338135,440.790680 253.276062,452.451630 
	C270.276154,469.057251 289.479431,483.067657 309.930084,495.219971 
	C316.704559,499.245605 323.977722,502.432068 331.022888,506.002197 
	C340.935516,511.316498 350.611847,517.146362 360.816620,521.823242 
	C375.787048,528.684387 390.923676,535.296692 406.371185,540.977051 
	C431.142273,550.086060 455.927429,559.377808 481.254150,566.697876 
	C511.758087,575.514221 542.729126,582.810425 573.698120,589.888977 
	C595.957642,594.976807 618.493591,598.928650 641.005676,602.810181 
	C654.400024,605.119568 667.980225,606.368469 681.489258,607.990295 
	C695.824097,609.711182 710.168884,611.352234 724.519531,612.935730 
	C729.104431,613.441711 733.717041,613.749084 738.325378,613.977478 
	C746.591248,614.387207 754.861511,614.736145 763.133606,614.990356 
	C786.005005,615.693359 808.874756,616.578857 831.752136,616.905640 
	C844.847473,617.092712 857.960449,616.442566 871.058167,615.967896 
	C885.935913,615.428772 900.812683,614.791931 915.676819,613.963196 
	C930.828613,613.118408 945.977539,612.150330 961.103638,610.936646 
	C974.864258,609.832397 988.635864,608.663879 1002.324402,606.912537 
	C1020.172302,604.629150 1038.029053,602.215698 1055.724731,598.994324 
	C1076.901245,595.139343 1098.227783,591.501099 1118.911377,585.705872 
	C1143.034180,578.947021 1167.094971,571.298462 1190.164307,561.611084 
	C1221.809692,548.322388 1252.490356,532.738403 1283.616577,518.207031 
	C1285.191895,517.471497 1287.071045,517.049988 1288.809082,517.048828 
	C1371.136108,516.993591 1453.463257,517.000671 1535.790283,517.006775 
	C1536.599365,517.006836 1537.408447,517.087952 1539.537476,517.201721 
	C1534.264282,525.884460 1529.911255,534.327209 1524.359253,541.889832 
	C1516.404053,552.725708 1507.859863,563.166687 1499.060791,573.338013 
	C1477.025635,598.809753 1450.294678,618.807434 1422.278564,637.026917 
	C1395.236816,654.612854 1366.953857,670.143311 1337.041260,682.340942 
	C1310.630127,693.110718 1284.176270,703.924438 1257.185669,713.081604 
	C1231.760620,721.707703 1205.778809,728.865723 1179.728394,735.424500 
	C1156.811890,741.194153 1133.511475,745.500916 1110.287354,749.968689 
	C1091.038574,753.671814 1071.705322,757.020264 1052.312622,759.864685 
	C1037.056396,762.102295 1021.665649,763.466614 1006.310364,764.970581 
	C990.917786,766.478149 975.502258,767.769165 960.083130,768.981384 
	C949.556335,769.808960 938.993958,770.186462 928.468445,771.027710 
	C886.802429,774.357910 845.061157,772.742126 803.352722,772.882385 
	C787.648682,772.935181 771.931274,771.818970 756.236511,770.940247 
	C742.580688,770.175720 728.927917,769.211670 715.310791,767.939636 
	C700.442322,766.550720 685.616333,764.706909 670.771912,763.060608 
	C658.536377,761.703674 646.260925,760.630310 634.076050,758.913269 
	C620.000000,756.929810 605.972168,754.554749 591.980774,752.031677 
	C572.543274,748.526550 553.081665,745.087402 533.773193,740.953064 
	C513.055908,736.517090 492.304077,732.017212 471.928284,726.266357 
	C443.239136,718.169189 414.641663,709.594360 386.458130,699.905701 
	C363.198822,691.909790 340.378265,682.509216 317.773926,672.777344 
	C299.743011,665.014343 282.100403,656.254578 264.698578,647.147888 
	C238.912689,633.653625 214.312836,618.150757 190.308472,600.615234 
	C179.883408,592.015564 169.750717,583.999573 160.015289,575.527100 
	C142.437363,560.229553 126.213387,543.608826 112.168198,524.942688 
	C107.624954,518.904785 102.956398,512.961243 98.345177,506.974487 
z"/>
<path fill="#861719" opacity="1.000000" stroke="none" 
	d="
M331.355835,505.866455 
	C323.977722,502.432068 316.704559,499.245605 309.930084,495.219971 
	C289.479431,483.067657 270.276154,469.057251 253.276062,452.451630 
	C241.338135,440.790680 230.102798,428.227539 223.134888,412.252014 
	C232.576218,406.839996 241.989044,401.691864 251.517258,396.766968 
	C266.546478,388.998779 281.439575,380.919312 296.780762,373.814789 
	C316.295715,364.777344 336.055573,356.226868 355.968079,348.099030 
	C392.739807,333.089600 430.123627,319.726532 468.337006,308.839600 
	C496.459930,300.827423 524.521240,292.450989 552.969666,285.767944 
	C586.222534,277.956238 619.801025,271.466705 653.363220,265.058044 
	C675.563782,260.818878 697.945374,257.463257 720.319702,254.221161 
	C735.520447,252.018585 750.842712,250.640472 766.121948,248.998932 
	C782.061584,247.286438 797.997070,245.492096 813.967896,244.126801 
	C826.017029,243.096756 838.112305,242.513901 850.199097,242.038742 
	C870.937500,241.223511 891.682556,240.538467 912.430115,240.004288 
	C930.881104,239.529251 949.338623,239.157150 967.794678,239.081131 
	C978.415100,239.037369 989.051636,239.440933 999.657471,240.051224 
	C1019.326538,241.183014 1038.983521,242.542618 1058.635620,243.946091 
	C1071.177246,244.841736 1083.723633,245.771957 1096.227051,247.077362 
	C1110.025635,248.517990 1123.823486,250.101990 1137.538574,252.174088 
	C1154.997925,254.811920 1172.533691,257.283844 1189.750854,261.111572 
	C1220.850830,268.025696 1251.929199,275.191315 1282.668213,283.535400 
	C1322.870728,294.448364 1361.427124,309.955688 1398.391724,329.211334 
	C1422.662476,341.854431 1445.652344,356.494476 1466.737183,374.089600 
	C1486.343994,390.451233 1503.956055,408.505676 1517.730347,430.146545 
	C1530.491211,450.195312 1539.390991,471.654236 1542.706787,496.000458 
	C1540.355469,496.000458 1538.394287,496.000427 1536.433228,496.000427 
	C1454.943481,496.000397 1373.453613,496.024963 1291.963989,495.901611 
	C1289.005005,495.897156 1285.727173,495.013977 1283.139771,493.569733 
	C1256.974854,478.964752 1231.370117,463.284760 1204.724487,449.631134 
	C1172.632324,433.186737 1138.190308,422.904114 1102.803223,416.094086 
	C1085.142456,412.695404 1067.381104,409.725372 1049.573242,407.214355 
	C1035.833740,405.277008 1021.968140,404.136780 1008.127197,403.037811 
	C988.653564,401.491577 969.160706,400.137604 949.657471,399.028717 
	C933.427795,398.105927 917.176575,397.418823 900.925293,397.050598 
	C876.809937,396.504120 852.679565,395.838959 828.567810,396.154602 
	C809.023560,396.410431 789.474854,397.730072 769.969666,399.148804 
	C753.491943,400.347290 737.032471,402.037140 720.639771,404.103302 
	C700.005676,406.704041 679.391357,409.566620 658.871460,412.942200 
	C634.770508,416.906860 610.656128,420.961273 586.773987,426.041046 
	C558.999634,431.948822 531.366455,438.603668 503.857880,445.659058 
	C453.171143,458.659210 403.738068,475.529266 355.330750,495.388855 
	C347.374908,498.652863 339.565735,502.274384 331.355835,505.866455 
z"/>
<path fill="#861719" opacity="1.000000" stroke="none" 
	d="
M98.000412,507.062683 
	C102.956398,512.961243 107.624954,518.904785 112.168198,524.942688 
	C126.213387,543.608826 142.437363,560.229553 160.015289,575.527100 
	C169.750717,583.999573 179.883408,592.015564 189.960693,600.546326 
	C183.064667,610.213806 175.134689,619.033997 169.215347,629.043213 
	C156.997467,649.702698 152.141998,672.500977 154.118011,696.412781 
	C155.666946,715.156433 162.159515,732.394775 171.916840,748.524292 
	C181.375778,764.160339 193.219543,777.770142 206.618652,789.965332 
	C224.919464,806.621765 245.357452,820.368469 266.925110,832.500732 
	C303.635712,853.151062 342.503479,868.807556 382.779175,880.567505 
	C413.658356,889.583740 445.065491,896.973633 476.522278,903.770264 
	C500.207855,908.887756 524.302429,912.199890 548.296387,915.768311 
	C561.691162,917.760315 575.241699,918.748047 588.740662,919.986206 
	C607.845642,921.738647 626.961426,923.384583 646.085876,924.909607 
	C653.522461,925.502625 660.992004,925.833008 668.451904,925.955261 
	C694.404236,926.380371 720.360474,927.004395 746.312134,926.883789 
	C765.226074,926.795959 784.149292,925.919189 803.042236,924.906921 
	C821.551697,923.915222 840.079163,922.792297 858.507019,920.854675 
	C885.437683,918.023071 912.313538,914.618286 939.164001,911.087097 
	C982.262146,905.419006 1024.830811,896.937439 1066.958740,886.231323 
	C1067.214111,886.166504 1067.550659,886.421082 1068.831543,886.873291 
	C1065.452148,888.023499 1062.884033,889.151001 1060.198853,889.773438 
	C1016.766541,899.841919 973.443726,910.435120 929.829041,919.644775 
	C903.527344,925.198608 876.824219,928.979736 850.193787,932.807861 
	C829.268921,935.815674 808.193542,937.815735 787.157471,939.997192 
	C772.026855,941.566345 756.864075,942.881409 741.691406,943.973633 
	C724.838562,945.186829 707.970459,946.464966 691.087463,946.923096 
	C655.519592,947.888245 619.939575,948.637695 584.360718,948.863647 
	C567.787598,948.968933 551.190918,947.891968 534.631348,946.906250 
	C517.289917,945.873901 499.932098,944.749756 482.668518,942.867126 
	C459.692627,940.361511 436.787323,937.185486 413.876190,934.114502 
	C378.311005,929.347412 343.244659,922.025208 308.520660,913.040771 
	C271.959076,903.580933 236.174622,891.799988 201.490158,876.794250 
	C172.842850,864.400330 145.290436,849.987122 119.532326,832.262207 
	C101.307594,819.721252 84.225372,805.786621 69.192833,789.554810 
	C47.163181,765.767700 30.347662,738.828674 22.623541,706.997131 
	C18.591539,690.381042 17.280975,673.544922 18.717150,656.271179 
	C20.971136,629.161072 29.419432,604.196960 41.923546,580.406372 
	C51.660362,561.880798 63.607048,544.801086 77.449783,529.098022 
	C84.023964,521.640320 90.910576,514.457947 98.000412,507.062683 
z"/>
</svg>